# xmcd CD database file
#
# Track frame offsets:
#	180
#	25248
#	40775
#	56462
#	74468
#	88131
#	109795
#	128985
#	146370
#
# Disc length: 2201 seconds
#
# Revision: 0
# Processed by: cddbd v1.5.2PL0 Copyright (c) Steve Scherf et al.
# Submitted via: CDex 1.51
#
DISCID=7a089709
DTITLE=John Melencamp - Hits
DYEAR=1999
DGENRE=Country
TTITLE0=Human Wheels
TTITLE1=I'm Not Running Anymore
TTITLE2=Wild Night
TTITLE3=Your Life Is Now
TTITLE4=Dance Naked
TTITLE5=Cherry Bomb
TTITLE6=Jack And Diane
TTITLE7=Paper In Fire
TTITLE8=Small Town
EXTD=YEAR: 1999
EXTT0=
EXTT1=
EXTT2=
EXTT3=
EXTT4=
EXTT5=
EXTT6=
EXTT7=
EXTT8=
PLAYORDER=
